<svg width="188" height="50" viewBox="0 0 188 50" fill="none" xmlns="http://www.w3.org/2000/svg">
<path d="M0 0H128V50H0V0Z" fill="#009CC2"/>
<path d="M21.8906 27.4521H19.3545V25.8525H21.8906C22.2826 25.8525 22.6016 25.7887 22.8477 25.6611C23.0938 25.529 23.2738 25.3467 23.3877 25.1143C23.5016 24.8818 23.5586 24.6198 23.5586 24.3281C23.5586 24.0319 23.5016 23.7562 23.3877 23.501C23.2738 23.2458 23.0938 23.0407 22.8477 22.8857C22.6016 22.7308 22.2826 22.6533 21.8906 22.6533H20.0654V31H18.0146V21.0469H21.8906C22.6699 21.0469 23.3376 21.1882 23.8936 21.4707C24.4541 21.7487 24.8825 22.1338 25.1787 22.626C25.4749 23.1182 25.623 23.681 25.623 24.3145C25.623 24.957 25.4749 25.513 25.1787 25.9824C24.8825 26.4518 24.4541 26.8141 23.8936 27.0693C23.3376 27.3245 22.6699 27.4521 21.8906 27.4521ZM33.4365 29.4004V31H28.4258V29.4004H33.4365ZM29.0889 21.0469V31H27.0381V21.0469H29.0889ZM38.7959 22.749L36.0889 31H33.9082L37.6064 21.0469H38.9941L38.7959 22.749ZM41.0449 31L38.3311 22.749L38.1123 21.0469H39.5137L43.2324 31H41.0449ZM40.9219 27.2949V28.9014H35.665V27.2949H40.9219ZM44.6201 21.0469L46.6982 25.5859L48.7764 21.0469H51.0117L47.7373 27.377V31H45.6592V27.377L42.3779 21.0469H44.6201ZM56.3438 21.0469H58.0801L60.6367 28.3545L63.1934 21.0469H64.9297L61.334 31H59.9395L56.3438 21.0469ZM55.4072 21.0469H57.1367L57.4512 28.1699V31H55.4072V21.0469ZM64.1367 21.0469H65.873V31H63.8223V28.1699L64.1367 21.0469ZM71.8408 22.749L69.1338 31H66.9531L70.6514 21.0469H72.0391L71.8408 22.749ZM74.0898 31L71.376 22.749L71.1572 21.0469H72.5586L76.2773 31H74.0898ZM73.9668 27.2949V28.9014H68.71V27.2949H73.9668ZM77.2002 21.0469H80.9121C81.6732 21.0469 82.3271 21.1608 82.874 21.3887C83.4255 21.6165 83.8493 21.9538 84.1455 22.4004C84.4417 22.847 84.5898 23.3962 84.5898 24.0479C84.5898 24.5811 84.4987 25.0391 84.3164 25.4219C84.1387 25.8001 83.8857 26.1169 83.5576 26.3721C83.234 26.6227 82.8535 26.8232 82.416 26.9736L81.7666 27.3154H78.54L78.5264 25.7158H80.9258C81.2858 25.7158 81.5843 25.652 81.8213 25.5244C82.0583 25.3968 82.236 25.2191 82.3545 24.9912C82.4775 24.7633 82.5391 24.499 82.5391 24.1982C82.5391 23.8792 82.4798 23.6035 82.3613 23.3711C82.2428 23.1387 82.0628 22.9609 81.8213 22.8379C81.5798 22.7148 81.2767 22.6533 80.9121 22.6533H79.251V31H77.2002V21.0469ZM82.7646 31L80.4951 26.5635L82.6621 26.5498L84.959 30.9043V31H82.7646ZM88.2197 21.0469V31H86.1689V21.0469H88.2197ZM94.1807 21.0469L90.2363 25.9619L87.96 28.4092L87.5908 26.4678L89.1289 24.3623L91.665 21.0469H94.1807ZM91.8496 31L88.917 26.3994L90.4346 25.1279L94.2764 31H91.8496ZM101.748 29.4004V31H96.4502V29.4004H101.748ZM97.1201 21.0469V31H95.0693V21.0469H97.1201ZM101.058 25.1006V26.6592H96.4502V25.1006H101.058ZM101.741 21.0469V22.6533H96.4502V21.0469H101.741ZM107.531 21.0469V31H105.487V21.0469H107.531ZM110.594 21.0469V22.6533H102.473V21.0469H110.594Z" fill="white"/>
<path d="M128 0H188V50H128V0Z" fill="#009CC2"/>
<path fill-rule="evenodd" clip-rule="evenodd" d="M155.647 18.1722C155.363 18.1722 155.134 17.9334 155.134 17.6548C155.134 17.3763 155.363 17.1375 155.647 17.1375C155.944 17.1375 156.173 17.3763 156.173 17.6548C156.173 17.9334 155.944 18.1722 155.647 18.1722ZM161.344 18.1722C161.047 18.1722 160.818 17.9334 160.818 17.6548C160.818 17.3763 161.047 17.1375 161.344 17.1375C161.628 17.1375 161.857 17.3763 161.857 17.6548C161.857 17.9334 161.628 18.1722 161.344 18.1722ZM150.382 20.6129C149.612 20.6129 148.991 21.2232 148.991 21.9659V27.6698C148.991 28.426 149.612 29.0362 150.382 29.0362C151.151 29.0362 151.759 28.426 151.759 27.6698V21.9659C151.759 21.2232 151.138 20.6129 150.382 20.6129ZM164.692 20.8649H152.299V29.6995C152.299 30.5086 152.96 31.1586 153.784 31.1586H154.783L154.796 34.1698C154.796 34.9259 155.417 35.5362 156.173 35.5362C156.943 35.5362 157.564 34.9259 157.564 34.1698V31.1586H159.427V34.1698C159.427 34.9259 160.048 35.5362 160.818 35.5362C161.587 35.5362 162.208 34.9259 162.208 34.1698V31.1586H163.221C164.031 31.1586 164.692 30.5086 164.692 29.6995V20.8649ZM161.56 15.4926L162.519 13.7549C162.573 13.6621 162.546 13.5427 162.451 13.4897C162.357 13.4497 162.235 13.4763 162.181 13.5692L161.209 15.3202C160.386 14.9619 159.468 14.7631 158.495 14.7631C157.523 14.7631 156.605 14.9619 155.782 15.3202L154.81 13.5692C154.756 13.4763 154.634 13.4497 154.54 13.4897C154.445 13.5427 154.418 13.6621 154.472 13.7549L155.431 15.4926C153.527 16.4478 152.245 18.2783 152.245 20.3873H164.733C164.733 18.2783 163.45 16.4478 161.56 15.4926ZM168 21.9659C168 21.2098 167.379 20.6129 166.609 20.6129C165.853 20.6129 165.232 21.2098 165.232 21.9659V27.6698C165.232 28.426 165.853 29.0362 166.609 29.0362C167.379 29.0362 168 28.426 168 27.6698V21.9659Z" fill="white"/>
</svg>
